<svg width="61" height="47" viewBox="0 0 61 47" fill="none" xmlns="http://www.w3.org/2000/svg">
<rect x="0.5" y="0.5" width="60" height="46" fill="#EDECEC" stroke="#6A75D9"/>
<path d="M24.0695 29.878H21.7136V21.6627H12.7536V29.878H10.4099V12.1046H12.7536V19.7462H21.7136V12.1046H24.0695V29.878ZM34.3478 21.9557C32.3377 21.3779 30.8729 20.6699 29.9533 19.8317C29.0418 18.9853 28.5861 17.9436 28.5861 16.7067C28.5861 15.3069 29.1436 14.1513 30.2585 13.2399C31.3815 12.3203 32.8382 11.8605 34.6286 11.8605C35.8493 11.8605 36.9357 12.0965 37.8879 12.5685C38.8482 13.0405 39.5887 13.6915 40.1096 14.5216C40.6385 15.3517 40.903 16.2591 40.903 17.2438H38.5471C38.5471 16.1696 38.2053 15.3273 37.5217 14.7169C36.8381 14.0984 35.8737 13.7892 34.6286 13.7892C33.473 13.7892 32.5697 14.0455 31.9186 14.5582C31.2757 15.0628 30.9543 15.7667 30.9543 16.67C30.9543 17.3943 31.2595 18.0087 31.8698 18.5133C32.4883 19.0097 33.534 19.4655 35.007 19.8805C36.4881 20.2955 37.6437 20.7553 38.4738 21.2599C39.312 21.7563 39.9305 22.3382 40.3293 23.0055C40.7362 23.6728 40.9396 24.4581 40.9396 25.3614C40.9396 26.8019 40.3781 27.9575 39.2551 28.8282C38.132 29.6909 36.6306 30.1222 34.7507 30.1222C33.53 30.1222 32.3906 29.8903 31.3327 29.4264C30.2748 28.9544 29.4569 28.3115 28.8791 27.4977C28.3094 26.6839 28.0246 25.7602 28.0246 24.7267H30.3806C30.3806 25.8009 30.7752 26.6513 31.5646 27.278C32.3622 27.8964 33.4242 28.2057 34.7507 28.2057C35.9877 28.2057 36.9357 27.9534 37.5949 27.4488C38.2541 26.9443 38.5837 26.2566 38.5837 25.3859C38.5837 24.5151 38.2785 23.8437 37.6682 23.3717C37.0578 22.8916 35.951 22.4196 34.3478 21.9557ZM50.5099 20.3444H55.466V22.4806H50.5099V28.0958H48.2394V22.4806H43.2834V20.3444H48.2394V15.1564H50.5099V20.3444Z" fill="#3544D2"/>
<path d="M24.0695 29.878V30.878H25.0695V29.878H24.0695ZM21.7136 29.878H20.7136V30.878H21.7136V29.878ZM21.7136 21.6627H22.7136V20.6627H21.7136V21.6627ZM12.7536 21.6627V20.6627H11.7536V21.6627H12.7536ZM12.7536 29.878V30.878H13.7536V29.878H12.7536ZM10.4099 29.878H9.40985V30.878H10.4099V29.878ZM10.4099 12.1046V11.1046H9.40985V12.1046H10.4099ZM12.7536 12.1046H13.7536V11.1046H12.7536V12.1046ZM12.7536 19.7462H11.7536V20.7462H12.7536V19.7462ZM21.7136 19.7462V20.7462H22.7136V19.7462H21.7136ZM21.7136 12.1046V11.1046H20.7136V12.1046H21.7136ZM24.0695 12.1046H25.0695V11.1046H24.0695V12.1046ZM24.0695 28.878H21.7136V30.878H24.0695V28.878ZM22.7136 29.878V21.6627H20.7136V29.878H22.7136ZM21.7136 20.6627H12.7536V22.6627H21.7136V20.6627ZM11.7536 21.6627V29.878H13.7536V21.6627H11.7536ZM12.7536 28.878H10.4099V30.878H12.7536V28.878ZM11.4099 29.878V12.1046H9.40985V29.878H11.4099ZM10.4099 13.1046H12.7536V11.1046H10.4099V13.1046ZM11.7536 12.1046V19.7462H13.7536V12.1046H11.7536ZM12.7536 20.7462H21.7136V18.7462H12.7536V20.7462ZM22.7136 19.7462V12.1046H20.7136V19.7462H22.7136ZM21.7136 13.1046H24.0695V11.1046H21.7136V13.1046ZM23.0695 12.1046V29.878H25.0695V12.1046H23.0695ZM34.3478 21.9557L34.6258 20.9951L34.6241 20.9946L34.3478 21.9557ZM29.9533 19.8317L29.2728 20.5645L29.2797 20.5707L29.9533 19.8317ZM30.2585 13.2399L30.8914 14.0141L30.892 14.0136L30.2585 13.2399ZM37.8879 12.5685L37.4437 13.4644L37.4468 13.4659L37.8879 12.5685ZM40.1096 14.5216L39.2625 15.0531L39.2662 15.059L40.1096 14.5216ZM40.903 17.2438V18.2438H41.903V17.2438H40.903ZM38.5471 17.2438H37.5471V18.2438H38.5471V17.2438ZM37.5217 14.7169L36.8507 15.4585L36.8557 15.4629L37.5217 14.7169ZM31.9186 14.5582L32.536 15.3449L32.5373 15.3439L31.9186 14.5582ZM31.8698 18.5133L31.2327 19.284L31.2382 19.2886L31.2439 19.2932L31.8698 18.5133ZM35.007 19.8805L34.7358 20.843L34.7372 20.8434L35.007 19.8805ZM38.4738 21.2599L37.9544 22.1145L37.9642 22.1203L38.4738 21.2599ZM40.3293 23.0055L39.4708 23.5185L39.4755 23.5261L40.3293 23.0055ZM39.2551 28.8282L39.8642 29.6213L39.8678 29.6185L39.2551 28.8282ZM31.3327 29.4264L30.9253 30.3396L30.9311 30.3422L31.3327 29.4264ZM28.8791 27.4977L28.0598 28.0712L28.0637 28.0766L28.8791 27.4977ZM28.0246 24.7267V23.7267H27.0246V24.7267H28.0246ZM30.3806 24.7267H31.3806V23.7267H30.3806V24.7267ZM31.5646 27.278L30.9429 28.0612L30.9518 28.0682L31.5646 27.278ZM37.6682 23.3717L37.0498 24.1577L37.0564 24.1628L37.6682 23.3717ZM34.6241 20.9946C32.6739 20.434 31.3806 19.7795 30.627 19.0926L29.2797 20.5707C30.3652 21.5602 32.0016 22.3218 34.0716 22.9168L34.6241 20.9946ZM30.6338 19.0989C29.9248 18.4405 29.5861 17.6638 29.5861 16.7067H27.5861C27.5861 18.2235 28.1589 19.5301 29.2729 20.5645L30.6338 19.0989ZM29.5861 16.7067C29.5861 15.6169 30.0011 14.7419 30.8914 14.0141L29.6256 12.4657C28.2861 13.5607 27.5861 14.997 27.5861 16.7067H29.5861ZM30.892 14.0136C31.7976 13.272 33.0136 12.8605 34.6286 12.8605V10.8605C32.6628 10.8605 30.9654 11.3685 29.6249 12.4662L30.892 14.0136ZM34.6286 12.8605C35.7182 12.8605 36.6488 13.0704 37.4437 13.4644L38.332 11.6725C37.2226 11.1226 35.9804 10.8605 34.6286 10.8605V12.8605ZM37.4468 13.4659C38.2562 13.8638 38.8494 14.3947 39.2625 15.0531L40.9566 13.9901C40.3281 12.9884 39.4401 12.2172 38.329 11.671L37.4468 13.4659ZM39.2662 15.059C39.6928 15.7285 39.903 16.4494 39.903 17.2438H41.903C41.903 16.0688 41.5842 14.9749 40.9529 13.9842L39.2662 15.059ZM40.903 16.2438H38.5471V18.2438H40.903V16.2438ZM39.5471 17.2438C39.5471 15.9386 39.1209 14.8042 38.1877 13.971L36.8557 15.4629C37.2896 15.8503 37.5471 16.4005 37.5471 17.2438H39.5471ZM38.1926 13.9754C37.2689 13.1396 36.0336 12.7892 34.6286 12.7892V14.7892C35.7139 14.7892 36.4073 15.0572 36.8508 15.4585L38.1926 13.9754ZM34.6286 12.7892C33.3356 12.7892 32.1853 13.0754 31.3 13.7726L32.5373 15.3439C32.9541 15.0157 33.6104 14.7892 34.6286 14.7892V12.7892ZM31.3013 13.7716C30.3891 14.4874 29.9543 15.4966 29.9543 16.67H31.9543C31.9543 16.0368 32.1623 15.6382 32.536 15.3449L31.3013 13.7716ZM29.9543 16.67C29.9543 17.7227 30.4169 18.6097 31.2327 19.284L32.507 17.7426C32.102 17.4078 31.9543 17.0659 31.9543 16.67H29.9543ZM31.2439 19.2932C32.0247 19.9199 33.2313 20.4191 34.7358 20.843L35.2782 18.918C33.8367 18.5118 32.9519 18.0996 32.4958 17.7334L31.2439 19.2932ZM34.7372 20.8434C36.1753 21.2464 37.2338 21.6764 37.9544 22.1144L38.9932 20.4054C38.0537 19.8342 36.801 19.3447 35.2768 18.9176L34.7372 20.8434ZM37.9642 22.1203C38.6947 22.5529 39.1766 23.026 39.4709 23.5184L41.1877 22.4925C40.6844 21.6503 39.9294 20.9597 38.9834 20.3995L37.9642 22.1203ZM39.4755 23.5261C39.7727 24.0135 39.9396 24.6127 39.9396 25.3614H41.9396C41.9396 24.3036 41.6997 23.3321 41.1831 22.4849L39.4755 23.5261ZM39.9396 25.3614C39.9396 26.4977 39.5172 27.3596 38.6423 28.038L39.8678 29.6185C41.239 28.5553 41.9396 27.1061 41.9396 25.3614H39.9396ZM38.6459 28.0352C37.7472 28.7255 36.4822 29.1222 34.7507 29.1222V31.1222C36.7789 31.1222 38.5169 30.6562 39.8642 29.6213L38.6459 28.0352ZM34.7507 29.1222C33.6602 29.1222 32.6585 28.9158 31.7343 28.5106L30.9311 30.3422C32.1228 30.8647 33.3997 31.1222 34.7507 31.1222V29.1222ZM31.7401 28.5132C30.819 28.1022 30.153 27.5646 29.6945 26.9188L28.0637 28.0766C28.7608 29.0584 29.7305 29.8066 30.9253 30.3396L31.7401 28.5132ZM29.6983 26.9242C29.2513 26.2856 29.0246 25.5639 29.0246 24.7267H27.0246C27.0246 25.9566 27.3676 27.0822 28.0599 28.0711L29.6983 26.9242ZM28.0246 25.7267H30.3806V23.7267H28.0246V25.7267ZM29.3806 24.7267C29.3806 26.0829 29.897 27.2309 30.9429 28.0612L32.1864 26.4947C31.6535 26.0717 31.3806 25.5189 31.3806 24.7267H29.3806ZM30.9518 28.0682C31.9729 28.86 33.2722 29.2057 34.7507 29.2057V27.2057C33.5762 27.2057 32.7514 26.9328 32.1775 26.4877L30.9518 28.0682ZM34.7507 29.2057C36.1045 29.2057 37.302 28.9324 38.2027 28.2429L36.9871 26.6548C36.5695 26.9744 35.8708 27.2057 34.7507 27.2057V29.2057ZM38.2027 28.2429C39.1229 27.5386 39.5837 26.5502 39.5837 25.3859H37.5837C37.5837 25.9631 37.3853 26.35 36.9871 26.6548L38.2027 28.2429ZM39.5837 25.3859C39.5837 24.2509 39.1689 23.2681 38.2799 22.5806L37.0564 24.1628C37.3881 24.4193 37.5837 24.7793 37.5837 25.3859H39.5837ZM38.2864 22.5857C37.513 21.9773 36.2432 21.4631 34.6258 20.9951L34.0699 22.9163C35.6589 23.376 36.6026 23.8058 37.0499 24.1577L38.2864 22.5857ZM50.5099 20.3444H49.5099V21.3444H50.5099V20.3444ZM55.466 20.3444H56.466V19.3444H55.466V20.3444ZM55.466 22.4806V23.4806H56.466V22.4806H55.466ZM50.5099 22.4806V21.4806H49.5099V22.4806H50.5099ZM50.5099 28.0958V29.0958H51.5099V28.0958H50.5099ZM48.2394 28.0958H47.2394V29.0958H48.2394V28.0958ZM48.2394 22.4806H49.2394V21.4806H48.2394V22.4806ZM43.2834 22.4806H42.2834V23.4806H43.2834V22.4806ZM43.2834 20.3444V19.3444H42.2834V20.3444H43.2834ZM48.2394 20.3444V21.3444H49.2394V20.3444H48.2394ZM48.2394 15.1564V14.1564H47.2394V15.1564H48.2394ZM50.5099 15.1564H51.5099V14.1564H50.5099V15.1564ZM50.5099 21.3444H55.466V19.3444H50.5099V21.3444ZM54.466 20.3444V22.4806H56.466V20.3444H54.466ZM55.466 21.4806H50.5099V23.4806H55.466V21.4806ZM49.5099 22.4806V28.0958H51.5099V22.4806H49.5099ZM50.5099 27.0958H48.2394V29.0958H50.5099V27.0958ZM49.2394 28.0958V22.4806H47.2394V28.0958H49.2394ZM48.2394 21.4806H43.2834V23.4806H48.2394V21.4806ZM44.2834 22.4806V20.3444H42.2834V22.4806H44.2834ZM43.2834 21.3444H48.2394V19.3444H43.2834V21.3444ZM49.2394 20.3444V15.1564H47.2394V20.3444H49.2394ZM48.2394 16.1564H50.5099V14.1564H48.2394V16.1564ZM49.5099 15.1564V20.3444H51.5099V15.1564H49.5099Z" fill="#203FB0"/>
</svg>
